<svg width="257" height="67" viewBox="0 0 257 67" fill="none" xmlns="http://www.w3.org/2000/svg">
<mask id="mask0_2064_18444" style="mask-type:luminance" maskUnits="userSpaceOnUse" x="0" y="8" width="239" height="59">
<path d="M238.996 8.10352H0V66.1035H238.996V8.10352Z" fill="white"/>
</mask>
<g mask="url(#mask0_2064_18444)">
<path fill-rule="evenodd" clip-rule="evenodd" d="M91.7294 43.7304C91.7198 44.9849 91.4048 46.2213 90.8077 47.3478C90.2108 48.4745 89.3471 49.4624 88.2807 50.2381C86.9026 51.2241 85.3372 51.9636 83.6655 52.4182C81.433 53.0134 79.1159 53.292 76.7932 53.2445C71.0368 53.2445 66.8644 52.2221 64.2755 50.1775C61.6869 48.1326 60.3926 45.1044 60.3926 41.0928H67.366C67.366 43.2713 68.0845 44.9691 69.522 46.1859C70.9594 47.4028 73.3392 48.0158 76.6619 48.0253C77.934 48.049 79.2044 47.9267 80.4438 47.661C81.3191 47.4656 82.158 47.1509 82.9333 46.7274C83.501 46.4291 83.9718 45.9956 84.2966 45.4717C84.5481 45.0371 84.7058 44.5615 84.7611 44.0711C84.7959 43.5294 84.6529 42.9906 84.3511 42.525C84.0495 42.0594 83.6029 41.6888 83.0697 41.4615C81.6861 40.7992 80.2117 40.3137 78.6866 40.0189C76.9345 39.6502 75.036 39.3047 72.9759 38.9778C71.0174 38.6781 69.0934 38.2093 67.2295 37.5774C65.5761 37.0332 64.0705 36.1635 62.8164 35.0285C61.6448 33.9455 61.0592 32.4624 61.0592 30.5796C61.0471 29.2752 61.3166 27.9816 61.8518 26.7748C62.4173 25.5722 63.3097 24.5251 64.4422 23.7356C65.8263 22.7938 67.393 22.106 69.0575 21.7096C71.3018 21.1796 73.6138 20.933 75.9296 20.9767C78.2882 20.9266 80.6409 21.2164 82.903 21.8356C84.6154 22.3055 86.1925 23.1238 87.5181 24.2305C88.6936 25.2588 89.572 26.5428 90.0733 27.9652C90.6203 29.4856 90.8965 31.0781 90.8912 32.6802H84.2311C84.1583 31.742 83.9685 30.8146 83.6655 29.9166C83.3917 29.1187 82.8993 28.3999 82.2365 27.8299C81.4924 27.2147 80.6066 26.7643 79.6461 26.5135C78.3743 26.1775 77.0553 26.0203 75.7329 26.0464C74.5275 26.0254 73.3239 26.1382 72.1478 26.3826C71.3132 26.5554 70.516 26.8569 69.7896 27.2743C69.2423 27.5911 68.7947 28.0354 68.4919 28.5628C68.2371 29.0194 68.1006 29.5243 68.0931 30.038C68.0931 31.0604 68.6839 31.826 69.8551 32.3394C71.2581 32.9229 72.7239 33.3675 74.228 33.6652C75.9751 34.0296 77.867 34.3874 79.9037 34.7391C81.849 35.0617 83.7515 35.5748 85.5793 36.2703C87.2381 36.8895 88.7331 37.832 89.9621 39.034C91.1335 40.2011 91.7193 41.7666 91.7193 43.7304H91.7294ZM128.116 43.1795C127.988 44.51 127.607 45.8092 126.99 47.0168C126.344 48.2502 125.415 49.3381 124.268 50.2055C122.904 51.2092 121.344 51.9604 119.673 52.4182C117.463 53.0108 115.167 53.2893 112.866 53.2445C109.46 53.2445 106.649 52.7947 104.434 51.8953C102.393 51.1143 100.591 49.8815 99.1875 48.3054C97.884 46.7835 96.969 45.0088 96.5112 43.1141C96.0238 41.1228 95.7799 39.087 95.7841 37.0453C95.7748 35.0014 96.0306 32.9638 96.5466 30.9763C97.0231 29.1083 97.929 27.3568 99.2025 25.841C100.577 24.2706 102.357 23.0455 104.378 22.2791C106.57 21.4015 109.37 20.9626 112.78 20.9626C115.921 20.9626 118.522 21.4731 120.582 22.4939C122.557 23.4514 124.228 24.8692 125.429 26.6067C126.64 28.4313 127.431 30.4671 127.752 32.5868C128.13 34.9341 128.208 37.3141 127.985 39.6782H103.151C103.373 42.3827 104.237 44.4804 105.742 45.9712C107.246 47.4619 109.534 48.209 112.604 48.212C113.799 48.2367 114.991 48.0918 116.138 47.7824C116.993 47.5418 117.793 47.1571 118.497 46.648C119.091 46.2048 119.577 45.6494 119.92 45.0188C120.24 44.4306 120.495 43.8145 120.683 43.1795H128.116ZM120.683 34.3377C120.685 33.2912 120.539 32.2493 120.249 31.2377C119.983 30.2738 119.495 29.3742 118.82 28.6002C118.099 27.8095 117.19 27.1847 116.164 26.7748C114.888 26.2738 113.51 26.0333 112.124 26.0698C110.704 26.0243 109.29 26.2548 107.973 26.7468C106.95 27.1531 106.043 27.773 105.323 28.5581C104.614 29.3359 104.097 30.2472 103.808 31.2285C103.488 32.2961 103.286 33.391 103.207 34.4963H120.683V34.3377ZM164.567 40.4764C164.593 42.2598 164.29 44.0338 163.674 45.7237C163.11 47.247 162.165 48.6257 160.917 49.748C159.565 50.9122 157.956 51.7913 156.201 52.3248C154.015 52.9818 151.727 53.2975 149.43 53.2585C146.063 53.2585 143.298 52.8088 141.133 51.9094C139.117 51.1178 137.34 49.886 135.952 48.3195C134.658 46.8026 133.739 45.0417 133.261 43.1608C132.245 39.1853 132.245 35.0453 133.261 31.0697C133.738 29.1885 134.657 27.4273 135.952 25.911C137.34 24.3446 139.117 23.1127 141.133 22.3212C143.301 21.4217 146.023 20.972 149.298 20.972C154.476 20.972 158.314 22.1484 160.816 24.5012C163.318 26.8542 164.567 29.9944 164.567 33.9221H157.331C157.109 31.4665 156.391 29.5836 155.176 28.2734C153.96 26.9631 151.941 26.3095 149.116 26.3125C147.553 26.2654 145.999 26.548 144.572 27.139C143.41 27.6494 142.414 28.4336 141.684 29.4125C140.936 30.4408 140.42 31.5985 140.169 32.8156C139.871 34.2117 139.726 35.6317 139.734 37.0546C139.727 38.4448 139.872 39.8323 140.169 41.1955C140.424 42.4043 140.939 43.5537 141.684 44.5753C142.414 45.5555 143.425 46.3296 144.602 46.8115C146.072 47.3846 147.658 47.6571 149.253 47.6097C152.084 47.6097 154.087 46.9966 155.261 45.7704C156.437 44.5442 157.134 42.7842 157.353 40.4905L164.567 40.4764ZM202.15 37.1012C202.156 39.1375 201.899 41.167 201.383 43.1469C200.913 45.0847 199.945 46.8899 198.566 48.412C197.186 49.934 195.432 51.1284 193.451 51.8953C191.283 52.7947 188.539 53.2445 185.22 53.2445C181.9 53.2445 179.155 52.7947 176.984 51.8953C174.977 51.1072 173.21 49.8743 171.838 48.3054C170.563 46.7823 169.656 45.0227 169.183 43.1469C168.669 41.1669 168.413 39.1373 168.419 37.1012C168.412 35.0744 168.667 33.054 169.183 31.0837C169.669 29.2185 170.573 27.4686 171.838 25.9484C173.208 24.3569 174.991 23.1108 177.019 22.3258C179.212 21.4264 181.966 20.9767 185.285 20.9767C188.605 20.9767 191.348 21.4264 193.515 22.3258C195.539 23.1208 197.318 24.3652 198.698 25.9484C199.982 27.4615 200.898 29.2131 201.383 31.0837C201.901 33.0537 202.156 35.0743 202.15 37.1012ZM194.91 37.1012C194.917 35.703 194.795 34.307 194.547 32.9277C194.339 31.7001 193.852 30.5274 193.117 29.4872C192.377 28.4772 191.358 27.6707 190.163 27.1529C188.628 26.5335 186.959 26.2447 185.285 26.3079C183.62 26.2458 181.96 26.5396 180.438 27.167C179.256 27.6906 178.247 28.4964 177.515 29.5011C176.783 30.5454 176.286 31.7158 176.056 32.9416C175.523 35.7023 175.523 38.5282 176.056 41.2888C176.286 42.5137 176.782 43.6825 177.515 44.7248C178.247 45.7292 179.256 46.535 180.438 47.0588C181.939 47.6823 183.575 47.9763 185.22 47.9178C186.892 47.9745 188.556 47.6925 190.098 47.0916C191.293 46.5899 192.315 45.7936 193.051 44.79C193.786 43.7467 194.282 42.5762 194.51 41.3496C194.787 39.9525 194.92 38.5352 194.91 37.1153V37.1012ZM224.591 52.815H216.511L202.747 21.3875H210.513L220.612 47.2923L230.963 21.3875H238.997L224.591 52.815Z" fill="#1A1D3A"/>
<path fill-rule="evenodd" clip-rule="evenodd" d="M18.9979 48.7001C17.7361 49.8014 16.8477 51.0333 16.8477 52.8997V62.5267C17.3523 66.5258 20.3405 67.0625 23.8483 64.6872C31.7322 59.3489 39.4345 53.7026 47.1318 48.2241C52.073 44.7103 52.1487 41.1591 47.3486 37.8178L31.9644 27.0804L26.4477 30.8835C26.1398 31.1822 26.1045 31.2988 26.4477 31.5928L30.9902 34.8127C33.3574 36.4973 35.2654 38.1538 35.2654 41.1264V50.8185V50.8793C34.6195 55.947 30.4149 56.507 26.4073 53.7912C24.247 52.332 22.1036 50.8513 19.977 49.3487L19.3108 48.8821L19.1896 48.8354L19.0937 48.7655L18.9979 48.7001Z" fill="#1A1D3A"/>
<path fill-rule="evenodd" clip-rule="evenodd" d="M23.5107 21.1897L30.9858 26.3973L31.2836 26.192C33.1158 24.9741 34.1202 23.4622 34.0545 21.5537V12.3328C34.0545 8.41764 30.9049 6.70039 27.3922 9.44426L3.54344 26.0428C-1.25656 29.384 -1.1758 32.9351 3.76049 36.449C9.11572 40.2613 14.476 44.1533 19.9119 47.9702C20.1543 47.7836 20.4167 47.6017 20.669 47.415L25.2117 44.1486C26.095 43.388 26.0697 42.6039 25.2117 41.8154L19.6193 37.9329C17.7871 36.7196 16.7826 35.2076 16.8483 33.299V24.0782C16.8483 20.163 19.9978 18.4365 23.5107 21.1897Z" fill="#2A2E50"/>
<path fill-rule="evenodd" clip-rule="evenodd" d="M25.6695 32.4168C24.7863 31.656 24.8115 30.8721 25.6695 30.0835L30.9843 26.4157L23.5094 21.1893C19.9763 18.4361 16.8468 20.1626 16.8468 24.0777V33.2987C16.7811 35.2072 17.7855 36.7191 19.6177 37.9325L25.2456 41.8103C26.1036 42.6175 26.1288 43.4014 25.2456 44.1434L20.7029 47.4101C20.4455 47.5967 20.1983 47.7787 19.946 47.9653C22.3012 49.6328 24.6854 51.28 27.098 52.907C30.6008 55.2823 33.5837 54.7456 34.0936 50.7464V41.1243C34.0936 38.5577 32.3471 37.1438 30.2777 35.6691L25.6695 32.4168Z" fill="#1A1D3A"/>
</g>
<path d="M241.832 12V4.584H239.348V3.6H245.528V4.584H243.032V12H241.832ZM246.743 12V3.6H248.159L251.003 9.276L253.835 3.6H255.263V12H254.063V5.7L251.459 10.824H250.535L247.943 5.712V12H246.743Z" fill="#1A1D3A"/>
</svg>
